<svg xmlns="http://www.w3.org/2000/svg" xmlns:xlink="http://www.w3.org/1999/xlink">
    <symbol id="logo" viewBox="0 0 335 24">
        <path d="M63.1095 3.92212V10.0788H56.1057V3.92212H52.248V20.0788H56.1057V13.5863H63.1095V20.0788H66.9672V3.92212H66.7799H63.1095Z" />
        <path d="M81.1235 3.92157L77.0786 10.3395L73.0713 3.92157H68.502L75.1686 14.4813V20.0783H79.0261V14.4813L85.693 3.92157H85.3181H81.1235Z" />
        <path d="M98.1281 3.92157V15.7499C98.1281 16.1977 97.7909 16.5708 97.3038 16.5708H91.124V3.92157H87.2666V20.0783H98.6897C99.7008 20.0783 100.525 19.7798 101.124 19.1828C101.724 18.5858 102.023 17.7649 102.023 16.7574V3.92157H101.836H98.1281Z" />
        <path d="M116.966 3.92157H105.543V20.0783H109.401V7.42904H115.581C116.067 7.42904 116.404 7.80217 116.404 8.24992V20.1156H120.262V7.24247C120.262 6.23501 119.962 5.41411 119.363 4.81709C118.801 4.22008 117.978 3.92157 116.966 3.92157Z" />
        <path d="M135.281 3.92157H123.857V20.0783H135.281C136.292 20.0783 137.116 19.7798 137.715 19.1828C138.314 18.5858 138.614 17.7649 138.614 16.7574V7.24247C138.614 6.23501 138.314 5.41411 137.715 4.81709C137.079 4.22008 136.292 3.92157 135.281 3.92157ZM134.719 8.24993V15.7499C134.719 16.1977 134.382 16.5708 133.895 16.5708H127.716V7.42904H133.895C134.382 7.42904 134.719 7.76483 134.719 8.24993Z" />
        <path d="M145.319 3.92157C144.308 3.92157 143.483 4.22008 142.884 4.81709C142.285 5.41411 141.985 6.23501 141.985 7.24247V20.1156H145.843V15.0783H152.847V20.0783H156.705V3.92157H145.319ZM152.847 7.42904V11.6081H145.843V8.24992C145.843 7.83945 146.143 7.42904 146.667 7.42904H152.847Z" />
        <path d="M164.345 3.92157H160.487V20.0783H164.345V3.92157Z" />
        <path d="M22.0599 23.25C34.2322 23.25 44.1199 18.2127 44.1199 11.9813C44.1199 5.78731 34.2697 0.75 22.0599 0.75C9.88762 0.75 0 5.78732 0 12.0187C0 18.2127 9.88762 23.25 22.0599 23.25ZM26.2172 17.7276C25.8427 18.5858 25.206 20.3769 23.7453 21.1231C23.2959 21.347 22.7716 21.4589 22.2846 21.4589C22.1723 21.4589 22.0974 21.4589 22.0599 21.4589C17.9775 21.4589 14.1947 20.8993 11.0113 19.9291C10.9738 19.9291 10.8989 19.8918 10.8989 19.8918C10.5992 19.7798 10.4494 19.6679 10.4494 19.4813C10.4494 19.3321 10.5243 19.2202 10.6367 19.1082C10.6742 19.0709 10.7491 18.9963 10.824 18.9217C11.573 18.3246 13.7828 16.7201 17.94 15.153C19.4007 14.5933 21.236 13.9216 23.1461 13.5112C24.2697 13.2873 28.427 12.653 26.2172 17.7276ZM37.3782 6.38433C37.4531 6.23507 37.5655 6.12313 37.7528 6.12313C37.8652 6.12313 38.015 6.12314 38.2023 6.27239C40.7865 7.87687 42.3221 9.85448 42.3221 11.9813C42.3221 15.862 37.3033 19.1828 30.1498 20.6754C29.7003 20.75 29.4007 20.75 29.2884 20.6381C29.2135 20.5634 29.2135 20.4515 29.2884 20.3023C29.3258 20.2276 29.4007 20.153 29.4756 20.041C33.3708 15.4515 36.3671 8.69775 37.191 6.75746C37.2659 6.60821 37.3408 6.49627 37.3782 6.38433ZM17.9775 6.23507C18.3521 5.37686 18.9888 3.58582 20.4495 2.83955C20.8989 2.61567 21.4232 2.50373 21.9101 2.50373C22.0224 2.50373 22.0974 2.50373 22.1348 2.50373C26.2172 2.50373 30 3.06344 33.1835 4.03358C33.221 4.03358 33.2959 4.07089 33.2959 4.07089C33.5955 4.18283 33.7453 4.29478 33.7453 4.48134C33.7453 4.6306 33.6704 4.74254 33.558 4.85448C33.5206 4.89179 33.4457 4.96642 33.3708 5.04104C32.6217 5.63806 30.4495 7.24254 26.2922 8.80972C24.8315 9.36938 22.9963 10.0411 21.0862 10.4515C19.9251 10.7127 15.7678 11.347 17.9775 6.23507ZM13.97 3.32463C14.4195 3.25 14.7191 3.25 14.8315 3.36194C14.9064 3.43657 14.9064 3.5485 14.8315 3.69776C14.794 3.77239 14.7191 3.84701 14.6442 3.95896C10.7491 8.5485 7.79029 15.3022 6.92884 17.2425C6.85393 17.3918 6.81648 17.5037 6.74157 17.6157C6.66667 17.7649 6.55431 17.8769 6.36704 17.8769C6.25468 17.8769 6.10487 17.8396 5.91761 17.7276C3.33333 16.1231 1.79775 14.1455 1.79775 12.0187C1.79775 8.13803 6.81648 4.77985 13.97 3.32463Z" />
        <path d="M182.18 0V24" stroke="#003469" stroke-width="2" />
        <path d="M200.828 4.04999H203.526V14.487L211.452 4.04999H214.002V18.75H211.304V8.33399L203.379 18.75H200.828V4.04999ZM227.919 15.348H220.542L219.088 18.75H216.263L222.903 4.04999H225.601L232.262 18.75H229.395L227.919 15.348ZM227.013 13.206L224.231 6.77999L221.469 13.206H227.013ZM244.492 6.35999H239.602V18.75H236.882V6.35999H232.013V4.04999H244.492V6.35999ZM265.749 4.04999V18.75H263.051V6.35999H255.399V18.75H252.701V4.04999H265.749ZM273.809 7.40999C275.468 7.40999 276.732 7.80899 277.603 8.60699C278.489 9.39096 278.931 10.581 278.931 12.177V18.75H276.444V17.385C276.121 17.875 275.657 18.253 275.053 18.519C274.463 18.771 273.746 18.897 272.903 18.897C272.06 18.897 271.322 18.757 270.69 18.477C270.057 18.183 269.566 17.784 269.214 17.28C268.877 16.762 268.708 16.181 268.708 15.537C268.708 14.529 269.081 13.724 269.825 13.122C270.584 12.506 271.771 12.198 273.388 12.198H276.296V12.03C276.296 11.246 276.058 10.644 275.58 10.224C275.116 9.80399 274.42 9.59399 273.493 9.59399C272.861 9.59399 272.235 9.69201 271.617 9.88799C271.012 10.084 270.5 10.357 270.078 10.707L269.045 8.79599C269.636 8.34801 270.346 8.00496 271.174 7.76699C272.003 7.52901 272.882 7.40999 273.809 7.40999ZM273.451 16.986C274.111 16.986 274.694 16.839 275.2 16.545C275.721 16.237 276.086 15.803 276.296 15.243V13.941H273.577C272.06 13.941 271.301 14.438 271.301 15.432C271.301 15.908 271.491 16.286 271.87 16.566C272.249 16.846 272.776 16.986 273.451 16.986ZM288.431 7.40999C289.527 7.40999 290.503 7.64796 291.361 8.12399C292.232 8.60001 292.914 9.27201 293.406 10.14C293.897 11.008 294.143 12.009 294.143 13.143C294.143 14.277 293.897 15.285 293.406 16.167C292.914 17.035 292.232 17.707 291.361 18.183C290.503 18.659 289.527 18.897 288.431 18.897C286.913 18.897 285.712 18.393 284.827 17.385V22.824H282.192V7.53599H284.7V9.00599C285.136 8.47401 285.67 8.07501 286.302 7.80899C286.949 7.54296 287.658 7.40999 288.431 7.40999ZM288.136 16.65C289.105 16.65 289.9 16.328 290.518 15.684C291.15 15.04 291.466 14.193 291.466 13.143C291.466 12.093 291.15 11.246 290.518 10.602C289.9 9.95796 289.105 9.63599 288.136 9.63599C287.504 9.63599 286.934 9.78299 286.429 10.077C285.923 10.357 285.522 10.763 285.227 11.295C284.932 11.827 284.784 12.443 284.784 13.143C284.784 13.843 284.932 14.459 285.227 14.991C285.522 15.523 285.923 15.936 286.429 16.23C286.934 16.51 287.504 16.65 288.136 16.65ZM296.765 7.53599H299.4V12.093H305.07V7.53599H307.705V18.75H305.07V14.319H299.4V18.75H296.765V7.53599ZM315.431 7.40999C317.09 7.40999 318.354 7.80899 319.225 8.60699C320.111 9.39096 320.553 10.581 320.553 12.177V18.75H318.066V17.385C317.743 17.875 317.279 18.253 316.675 18.519C316.085 18.771 315.368 18.897 314.525 18.897C313.682 18.897 312.944 18.757 312.312 18.477C311.679 18.183 311.188 17.784 310.836 17.28C310.499 16.762 310.33 16.181 310.33 15.537C310.33 14.529 310.703 13.724 311.447 13.122C312.206 12.506 313.393 12.198 315.01 12.198H317.919V12.03C317.919 11.246 317.68 10.644 317.202 10.224C316.738 9.80399 316.043 9.59399 315.115 9.59399C314.483 9.59399 313.857 9.69201 313.239 9.88799C312.635 10.084 312.122 10.357 311.7 10.707L310.667 8.79599C311.258 8.34801 311.968 8.00496 312.796 7.76699C313.625 7.52901 314.504 7.40999 315.431 7.40999ZM315.073 16.986C315.733 16.986 316.317 16.839 316.822 16.545C317.343 16.237 317.708 15.803 317.919 15.243V13.941H315.199C313.682 13.941 312.923 14.438 312.923 15.432C312.923 15.908 313.113 16.286 313.492 16.566C313.871 16.846 314.398 16.986 315.073 16.986ZM328.936 18.897C327.77 18.897 326.723 18.652 325.795 18.162C324.868 17.672 324.144 16.993 323.624 16.125C323.104 15.243 322.844 14.249 322.844 13.143C322.844 12.037 323.104 11.05 323.624 10.182C324.144 9.31401 324.861 8.63496 325.774 8.14499C326.702 7.65501 327.755 7.40999 328.936 7.40999C330.046 7.40999 331.016 7.63401 331.845 8.08199C332.688 8.52996 333.32 9.17399 333.742 10.014L331.718 11.19C331.395 10.672 330.987 10.287 330.496 10.035C330.018 9.76896 329.491 9.63599 328.915 9.63599C327.931 9.63599 327.116 9.95796 326.47 10.602C325.823 11.232 325.5 12.079 325.5 13.143C325.5 14.207 325.816 15.061 326.449 15.705C327.095 16.335 327.917 16.65 328.915 16.65C329.491 16.65 330.018 16.524 330.496 16.272C330.987 16.006 331.395 15.614 331.718 15.096L333.742 16.272C333.306 17.112 332.667 17.763 331.824 18.225C330.995 18.673 330.032 18.897 328.936 18.897Z" />
    </symbol>
    <symbol id="phone" viewBox="0 0 20 20">
        <path d="M18.3307 19.5238C8.17403 19.5382 0.465708 11.7375 0.476574 1.66966C0.476574 1.01218 1.00957 0.476196 1.66705 0.476196H4.80914C5.39911 0.476196 5.90029 0.909684 5.98692 1.49325C6.19455 2.89191 6.60177 4.25354 7.19619 5.53656L7.31852 5.80061C7.48862 6.16775 7.37332 6.60398 7.04403 6.83914C6.07097 7.53404 5.69909 8.93281 6.45715 10.0242C7.40844 11.3939 8.60758 12.5927 9.97689 13.5436C11.0683 14.3015 12.4668 13.9296 13.1617 12.9567C13.397 12.6273 13.8335 12.5119 14.2008 12.6821L14.4637 12.8038C15.7468 13.3982 17.1085 13.8055 18.5073 14.013C19.0909 14.0997 19.5242 14.6008 19.5242 15.1908V18.3333C19.5242 18.9908 18.9899 19.5238 18.3324 19.5238L18.3307 19.5238Z"/>
    </symbol>
    <symbol id="close" viewBox="0 0 48 48" fill="none" xmlns="http://www.w3.org/2000/svg">
        <path d="M47 1L1 47M1 1L24 24L47 47" stroke="white" stroke-width="2"/>
    </symbol>
    <symbol id="burger" viewBox="0 0 22 16">
        <path d="M21.7157 15.1429H0.287109V12.7619H21.7157V15.1429ZM21.7157 9.19051H0.287109V6.80956H21.7157V9.19051ZM21.7157 3.23813H0.287109V0.857178H21.7157V3.23813Z"/>
    </symbol>
</svg>